# xmcd
#
# Track frame offsets:
# 150
# 10581
# 25341
# 37065
# 47190
# 53721
# 70299
# 78651
# 96783
# 119091
# 148203
# 178251
# 187152
# 196152
# 199380
# 208857
# 215283
# 222669
# 236907
# 245673
# 262773
# 271395
# 286583
# 302593
# 317341
# 327529
#
# Disc length: 4546 seconds
#
#
# Revision: 1
# Processed by: cddbd v1.5.2PL0 Copyright (c) Steve Scherf et al.
# Submitted via: FreeRIP 2.942 
#
DISCID=9c11c01a
DTITLE=Kevin Bowyer - Volume 16
DYEAR=2001
DGENRE=Organ
TTITLE0=Concerto in D major, BWV 972 (after Vivaldi's op.3 no.9) - I.
TTITLE1=Concerto in D major, BWV 972 (after Vivaldi's op.3 no.9) - II. Larghetto
TTITLE2=Concerto in D major, BWV 972 (after Vivaldi's op.3 no.9) - III. Allegro
TTITLE3=Wer nur den lieben Gott lasst walten, BWV 691a
TTITLE4=Prelude and Fugue in C major, BWV 545a - I. Prelude
TTITLE5=Prelude and Fugue in C major, BWV 545a - II. Fugue
TTITLE6=Prelude in A major, BWV 536a/i
TTITLE7=Ich ruf' zu dir, Herr Jesu Christ, BWV Anh 73
TTITLE8=An Wasserflussen Babylon, BWV 653a
TTITLE9=Passacaglia in D minor, BWV Anh 182
TTITLE10=Fugue in C minor on a theme by Legrenzi, BWV 574b
TTITLE11=Vater unser im Himmelreich, BWV 683a
TTITLE12=Allein Gott in der Hoh sei ehr, BWV 676a
TTITLE13=Ich hab mein Sach Gott Heimgestellt, BWV 708a
TTITLE14=Fugue in D minor, BWV Anh 180
TTITLE15=Ach Gott und Herr, BWV 692
TTITLE16=Ach Gott und Herr, BWV 693
TTITLE17=Schmucke dich, o liebe Seele, BWV 759
TTITLE18=Vater unser im Himmelreich, BWV 760
TTITLE19=Vater unser im Himmelreich, BWV 761
TTITLE20=Fantasia and Fugue in D minor, BWV 549a - I. Fantasia
TTITLE21=Fantasia and Fugue in D minor, BWV 549a - II. Fugue
TTITLE22=Fugue in E minor, BWV 962
TTITLE23=Concerto in C major, BWV 984 (after Prince Johann Ernst) - I.
TTITLE24=Concerto in C major, BWV 984 (after Prince Johann Ernst) - II. Adagio e affettuoso
TTITLE25=Concerto in C major, BWV 984 (after Prince Johann Ernst) - III. Allegro assai
EXTD=Marcussen organ of Sct Hans Kirke, Odense, Denmark
EXTT0=
EXTT1=
EXTT2=
EXTT3=
EXTT4=
EXTT5=
EXTT6=
EXTT7=
EXTT8=
EXTT9=
EXTT10=
EXTT11=
EXTT12=
EXTT13=
EXTT14=
EXTT15=
EXTT16=
EXTT17=
EXTT18=
EXTT19=
EXTT20=
EXTT21=
EXTT22=
EXTT23=
EXTT24=
EXTT25=
PLAYORDER=
